<svg width="14" height="16" viewBox="0 0 14 16" fill="none" xmlns="http://www.w3.org/2000/svg">
<path d="M3.32616 6.12967C3.22439 2.96553 4.48164 0.961419 6.99184 1.00056C9.47469 1.03928 10.757 3.15066 10.5333 6.12967M3.32616 6.12967C1.78044 6.46007 1.50047 7.10141 1.1516 8.36234C0.723278 10.8063 1.27587 13.6725 1.89716 14.0949C2.51845 14.5173 3.32616 15 6.99184 15C10.6575 15 11.4652 14.6379 12.0865 14.0949C12.7078 13.5518 13.2316 10.6339 12.8942 8.36234C12.6457 6.85378 12.0865 6.37104 10.5333 6.12967M3.32616 6.12967C5.81136 5.58659 8.23444 5.70727 10.5333 6.12967" stroke="black"/>
</svg>
