<svg width="14" height="18" viewBox="0 0 14 18" fill="none" xmlns="http://www.w3.org/2000/svg">
<path d="M1.0817 6.05517C0.793669 3.40918 1.19644 2.25701 3.43778 1.09628C4.91773 0.797674 5.59639 1.14096 6.47451 2.87501C7.31239 4.33875 7.19567 5.09208 5.95093 6.32467L5.94225 6.33242C5.16323 7.02744 4.84855 7.3082 5.42736 9.23533C5.42736 9.23533 5.84622 10.1516 6.47451 11.0141C7.1028 11.8765 7.44928 12.2039 8.62116 11.8765C10.4375 11.0902 10.8725 11.2836 12.0244 12.8467C13.1762 14.4098 13.4661 15.0739 12.0244 16.512C10.6118 17.6319 8.85993 17.2297 7.78344 16.7276C6.70695 16.2254 2.18056 10.9349 1.0817 6.05517Z" stroke="black" stroke-width="1.5"/>
</svg>
