<svg width="13" height="17" viewBox="0 0 13 17" fill="none" xmlns="http://www.w3.org/2000/svg">
<path id="Vector" d="M12.6176 16.6136H11.0882V15.0682C11.0882 13.7878 10.0611 12.75 8.79409 12.75H4.20585C2.93885 12.75 1.91174 13.7878 1.91174 15.0682V16.6136H0.382324V15.0682C0.382324 12.9344 2.09418 11.2045 4.20585 11.2045H8.79409C10.9057 11.2045 12.6176 12.9344 12.6176 15.0682V16.6136ZM6.49997 9.65908C3.96596 9.65908 1.91174 7.5833 1.91174 5.02272C1.91174 2.46212 3.96596 0.386353 6.49997 0.386353C9.03398 0.386353 11.0882 2.46212 11.0882 5.02272C11.0882 7.5833 9.03398 9.65908 6.49997 9.65908ZM6.49997 8.11363C8.18928 8.11363 9.55879 6.72978 9.55879 5.02272C9.55879 3.31565 8.18928 1.93181 6.49997 1.93181C4.81063 1.93181 3.44115 3.31565 3.44115 5.02272C3.44115 6.72978 4.81063 8.11363 6.49997 8.11363Z" fill="#1C1C1C"/>
</svg>
